<svg enable-background="new 0 0 492.308 492.308" height="512" viewBox="0 0 492.308 492.308" width="512" xmlns="http://www.w3.org/2000/svg"><g fill="#fff"><path d="m401.817 367.952v-45.644h-19.692v45.644h-45.644v19.692h45.644v45.635h19.692v-45.635h45.645v-19.692z"/><path d="m392.15 277.471c-14.551-19.507-31.998-36.447-52.15-50.144-1.615-1.106-4.875-3.221-4.875-3.221l-7.865-5.106-5.481 7.615c-24.096 33.452-63.01 53.433-104.077 53.433-41.077 0-79.981-19.981-104.077-53.442l-5.5-7.644-11.904 7.817c-60.25 40.577-96.221 108.125-96.221 180.683v31.644h312.725c18.37 23.685 47.018 39.019 79.246 39.019 55.327 0 100.337-45.01 100.337-100.327 0-55.267-44.914-100.229-100.158-100.327zm-372.458 141.943v-11.952c0-64.481 31.231-124.615 83.788-161.769 28 34.01 70.019 54.048 114.221 54.048s86.221-20.038 114.221-54.048c13.962 9.87 26.487 21.413 37.421 34.438-44.448 10.3-77.709 50.132-77.709 97.668 0 14.855 3.332 28.919 9.153 41.615zm372.279 39.019c-44.471 0-80.644-36.173-80.644-80.635 0-44.471 36.173-80.644 80.644-80.644s80.644 36.173 80.644 80.644c0 44.462-36.173 80.635-80.644 80.635z"/><path d="m217.702 14.183c-59.529 0-107.952 48.433-107.952 107.962s48.423 107.952 107.952 107.952 107.962-48.423 107.962-107.952c-.001-59.53-48.433-107.962-107.962-107.962zm0 196.221c-48.663 0-88.26-39.596-88.26-88.26 0-48.673 39.596-88.269 88.26-88.269 48.673 0 88.269 39.596 88.269 88.269 0 48.664-39.596 88.26-88.269 88.26z"/></g></svg>