<svg enable-background="new 0 0 32 32" height="512" viewBox="0 0 32 32" width="512" xmlns="http://www.w3.org/2000/svg"><g fill="#7b7d7d"><path d="m29.334 3h-4.334v-2c0-.553-.447-1-1-1s-1 .447-1 1v2h-6v-2c0-.553-.448-1-1-1s-1 .447-1 1v2h-6v-2c0-.553-.448-1-1-1s-1 .447-1 1v2h-4.333c-1.473 0-2.667 1.193-2.667 2.666v23.667c0 1.473 1.194 2.667 2.667 2.667h26.667c1.473 0 2.666-1.194 2.666-2.667v-23.667c0-1.473-1.193-2.666-2.666-2.666zm.666 26.333c0 .368-.299.667-.666.667h-26.667c-.368 0-.667-.299-.667-.667v-23.667c0-.367.299-.666.667-.666h4.333v2c0 .553.448 1 1 1s1-.447 1-1v-2h6v2c0 .553.448 1 1 1s1-.447 1-1v-2h6v2c0 .553.447 1 1 1s1-.447 1-1v-2h4.334c.367 0 .666.299.666.666z"/><path d="m7 12h4v3h-4z"/><path d="m7 17h4v3h-4z"/><path d="m7 22h4v3h-4z"/><path d="m14 22h4v3h-4z"/><path d="m14 17h4v3h-4z"/><path d="m14 12h4v3h-4z"/><path d="m21 22h4v3h-4z"/><path d="m21 17h4v3h-4z"/><path d="m21 12h4v3h-4z"/></g></svg>