<?xml version="1.0"?>
<svg xmlns="http://www.w3.org/2000/svg" xmlns:xlink="http://www.w3.org/1999/xlink" version="1.1" id="Capa_1" x="0px" y="0px" viewBox="0 0 510.51 510.51" style="enable-background:new 0 0 510.51 510.51;" xml:space="preserve" width="512px" height="512px"><g><g>
	<g>
		<g>
			<path d="M333.93,403.792l-1.051-1.079c-11.167-10.402-23.966-18.9-37.888-25.152c-7.296-3.493-25.307-10.642-34.45-1.015     c-4.234,5.337-7.625,11.291-10.057,17.655c-1.792,4.014-3.648,8.119-5.797,11.886c-4.446,8.199-10.497,15.419-17.792,21.23     c-3.382,2.444-7.01,4.527-10.825,6.217c-3.407,1.331-6.54,3.278-9.243,5.742c-2.426,3.573-3.991,7.661-4.571,11.941     c-0.944,4.715-2.455,9.298-4.498,13.65c-2.917,4.708-4.701,10.028-5.211,15.543c1.426,8.59,6.479,16.15,13.87,20.754     c3.356,2.359,6.835,4.538,10.423,6.528l-0.082-0.082c67.379,10.231,136.049-6.94,190.683-47.68     c-12.789-5.396-24.827-12.424-35.813-20.91C358.35,428.061,345.761,416.297,333.93,403.792z" data-original="#000000" class="active-path" data-old_color="#2C2121" fill="#2C3E50"/>
			<path d="M69.446,106.621c8.319,4.057,14.351,11.665,16.402,20.69c1.955,11.768,0.231,23.854-4.937,34.606     c-4.025,7.465-5.386,16.078-3.858,24.421c2.45,6.427,9.966,11.337,23.68,15.415l1.673,0.475     c13.857,2.39,26.501,9.387,35.886,19.858c4.944,7.623,8.112,16.259,9.271,25.271c0.796,5.679,2.445,11.206,4.891,16.393     c6.4,11.447,22.016,16.055,37.486,19.794c18.402,4.474,36.791,9.024,55.168,13.65c-2.242-3.168-4.813-6.088-7.671-8.713     l-4.498-3.566c-12.946-10.158-29.056-22.811-29.056-44.507c-0.565-11.391,5.352-22.123,15.286-27.725s22.18-5.112,31.635,1.266     c1.527,0.713,3.063,1.445,4.626,2.085c0.357,0.155,0.686,0.274,0.987,0.375c-1.289-10.432-3.337-27.785,13.458-38.629     c8.369-4.869,17.535-8.216,27.072-9.883c4.58-0.958,9.101-2.179,13.541-3.657c11.747-4.739,22.815-11.014,32.914-18.661     c2.853-1.984,5.321-3.447,7.845-4.937c6.235-3.712,12.142-7.205,13.714-12.041c2.048-6.309-7.854-14.619-13.934-19.017     C338.895,100.88,327,93.227,315.434,94.855c-4.53,0.939-8.923,2.447-13.074,4.489c-4.567,2.141-9.32,3.861-14.199,5.138     c-8.807,2.068-18.077,0.39-25.6-4.635c-5.088-3.504-8.378-9.067-8.997-15.214c0.072-9.873,4.995-19.079,13.166-24.622     c3.285-2.535,6.007-5.727,7.991-9.371c0.762-4.839-1.623-9.63-5.943-11.941c-7.718-3.82-16.516-4.866-24.914-2.962     c-5.192,0.592-10.419,0.821-15.643,0.686c-19.106-0.934-36.918-9.933-49.006-24.759c-51.73,15.979-96.974,48.123-129.088,91.712     c1.189-0.091,2.368-0.146,3.529-0.146C59.107,103.161,64.504,104.32,69.446,106.621z" data-original="#000000" class="active-path" data-old_color="#2C2121" fill="#2C3E50"/>
			<path d="M482.757,139.433C429.852,35.466,313.159-19.366,199.356,6.269c8.318,7.116,18.748,11.293,29.678,11.886     c4.379,0.098,8.76-0.11,13.111-0.622c12.402-2.422,25.261-0.412,36.334,5.678c11.659,6.74,17.21,20.568,13.449,33.499     c-2.833,6.579-7.268,12.343-12.901,16.768c-4.571,4.215-7.515,7.15-7.314,9.527c0.027,0.283,0.101,1.042,1.445,2.011     c3.228,1.932,7.078,2.538,10.743,1.691c3.817-1.049,7.537-2.425,11.118-4.114c5.619-2.731,11.583-4.687,17.728-5.815     c19.803-2.843,37.339,9.691,48.905,17.984c18.011,12.992,24.951,26.286,20.645,39.506c-4.252,9.845-12.039,17.739-21.824,22.126     c-2.121,1.253-4.233,2.478-6.062,3.767c-11.585,8.756-24.291,15.921-37.778,21.303c-5.093,1.73-10.283,3.162-15.543,4.288     c-7.466,1.25-14.669,3.75-21.303,7.397c-6.144,3.977-6.729,9.015-5.23,21.202c1.085,5.686-0.545,11.552-4.407,15.863     c-5.937,5.453-14.674,6.553-21.778,2.743c-1.673-0.677-3.502-1.536-5.33-2.395c-6.647-3.127-9.499-4.16-12.91-2.743     c-4.914,2.242-8.026,7.19-7.918,12.59c0,12.855,10.715,21.266,22.062,30.171l4.809,3.822c0.32,0.238,19.456,16.896,17.371,30.747     c-0.752,4.914-4.07,9.052-8.704,10.853c-3.973,1.408-8.299,1.463-12.306,0.155c-19.931-5.029-39.845-9.96-59.739-14.793     c-18.542-4.48-39.177-10.761-49.161-28.654c-3.419-6.837-5.733-14.172-6.857-21.733c-0.74-6.35-2.799-12.476-6.043-17.984     c-7.181-6.967-16.333-11.555-26.213-13.138l-1.829-0.512c-12.425-3.694-29.522-10.423-35.657-26.45     c-3.406-12.442-2.06-25.707,3.776-37.211c3.675-7.352,5.2-15.592,4.398-23.771c-0.735-3.795-3.186-7.036-6.638-8.777     c-2.441-1.086-5.092-1.616-7.762-1.554c-4.319,0.045-8.583,0.978-12.526,2.743c-2.179,0.945-4.161,2.291-5.842,3.968     c-4.73,5.171-8.435,11.193-10.917,17.746l-0.695,1.509c-31.032,66.88-31.669,143.903-1.748,211.287     c29.921,67.384,87.486,118.563,157.908,140.393c-3.539-5.622-5.479-12.101-5.614-18.743c0.41-8.467,2.903-16.701,7.259-23.973     c1.339-3.05,2.335-6.239,2.971-9.509c1.164-7.316,4.211-14.204,8.841-19.986c4.248-4.267,9.305-7.643,14.875-9.929     c2.686-1.166,5.25-2.596,7.653-4.27c5.348-4.35,9.777-9.721,13.029-15.799c1.765-3.109,3.355-6.665,4.992-10.267     c3.2-8.261,7.751-15.933,13.467-22.702c12.261-12.928,32.539-13.97,55.662-2.871c15.84,7.119,30.367,16.855,42.971,28.8     l1.051,1.07c11.32,11.968,23.359,23.234,36.05,33.737c12.34,9.313,25.976,16.771,40.475,22.135     C511.297,370.011,535.662,243.401,482.757,139.433z" data-original="#000000" class="active-path" data-old_color="#2C2121" fill="#2C3E50"/>
		</g>
	</g>
</g></g> </svg>
